<svg xmlns="http://www.w3.org/2000/svg" version="1.1" xmlns:xlink="http://www.w3.org/1999/xlink" xmlns:svgjs="http://svgjs.dev/svgjs" width="1000" height="1125" viewBox="0 0 1000 1125"><g transform="matrix(1,0,0,1,0.0011008540699322111,0)"><svg viewBox="0 0 320 360" data-background-color="#ffffff" preserveAspectRatio="xMidYMid meet" height="1125" width="1000" xmlns="http://www.w3.org/2000/svg" xmlns:xlink="http://www.w3.org/1999/xlink"><g id="tight-bounds" transform="matrix(1,0,0,1,0.00010353528136874957,0)"><svg viewBox="0 0 320 360" height="360" width="320"><g><svg></svg></g><g><svg viewBox="0 0 320 360" height="360" width="320"><g><path d="M307.925 179.999l6.575-11.387c11.322-19.607 4.604-44.679-15.003-56.001l-11.387-6.575v-13.151c0-22.639-18.354-40.994-40.994-40.994h-13.151l-6.575-11.387c-11.322-19.607-36.393-26.325-56.001-15.003l-11.39 6.572-11.387-6.576c-19.607-11.318-44.679-4.6-56.001 15.007l-6.575 11.387h-13.151c-22.639 0-40.994 18.354-40.994 40.994v13.151l-11.387 6.575c-19.607 11.322-26.325 36.393-15.003 56.001l6.572 11.387-6.576 11.387c-11.318 19.607-4.6 44.679 15.007 56l11.387 6.576v13.15c0 22.639 18.354 40.994 40.994 40.994h13.151l6.575 11.387c11.322 19.607 36.393 26.325 56.001 15.003l11.387-6.571 11.387 6.575c19.607 11.322 44.679 4.604 56-15.003l6.576-11.387h13.15c22.639 0 40.994-18.354 40.994-40.994v-13.151l11.387-6.575c19.607-11.322 26.325-36.393 15.003-56.001zM297.702 115.716c8.655 4.996 14.842 13.062 17.428 22.713 2.586 9.65 1.261 19.734-3.735 28.384l-5.538 9.596-17.747-30.74v-35.494zM251.155 271.155l-57.791 33.365h-66.731l-57.791-33.365-33.365-57.791v-66.731l33.365-57.791 57.791-33.365h66.731l57.791 33.365 33.365 57.791v66.731zM284.517 220.539v31.351l-27.151 15.676zM247.566 277.366l-15.676 27.151h-31.351zM187.15 308.106l-27.151 15.676-27.151-15.676zM119.459 304.517h-31.352l-15.676-27.151zM62.632 267.566l-27.151-15.676v-31.351zM31.891 207.15l-15.675-27.151 15.675-27.151zM35.481 139.459v-31.352l27.151-15.676zM72.431 82.632l15.676-27.151h31.352zM132.848 51.891l27.151-15.675 27.151 15.675zM200.539 55.481h31.351l15.676 27.151zM257.366 92.431l27.151 15.676v31.352zM288.106 152.848l15.676 27.151-15.676 27.151zM247.112 55.481c9.992 0 19.384 3.889 26.452 10.956 7.063 7.063 10.956 16.46 10.957 26.452v11.079l-30.741-17.747-17.747-30.74zM173.18 28.606c8.655-4.996 18.735-6.322 28.385-3.735 9.65 2.586 17.716 8.777 22.712 17.428l5.538 9.596h-35.494l-30.741-17.747zM95.716 42.295c4.996-8.655 13.062-14.842 22.713-17.428 9.65-2.586 19.734-1.261 28.384 3.736l9.596 5.537-30.74 17.747h-35.494zM35.481 92.885c0-9.992 3.889-19.384 10.956-26.452 7.063-7.063 16.46-10.956 26.452-10.956h11.079l-17.747 30.74-30.74 17.747zM8.606 166.817c-4.996-8.655-6.322-18.735-3.735-28.385 2.586-9.65 8.777-17.716 17.428-22.712l9.596-5.538v35.495l-17.747 30.74zM22.295 244.281c-8.655-4.996-14.842-13.062-17.428-22.712-2.586-9.65-1.261-19.734 3.736-28.385l5.537-9.596 17.747 30.74v35.495zM72.885 304.517c-9.992 0-19.384-3.889-26.452-10.957-7.063-7.063-10.956-16.46-10.956-26.451v-11.08l30.74 17.747 17.747 30.741zM146.817 331.391c-8.655 4.996-18.735 6.322-28.385 3.735-9.65-2.586-17.716-8.777-22.712-17.428l-5.538-9.596h35.495l30.74 17.747zM224.281 317.702c-4.996 8.655-13.062 14.842-22.712 17.428-9.65 2.586-19.734 1.261-28.385-3.735l-9.596-5.538 30.74-17.747h35.495zM284.517 267.112c0 9.992-3.889 19.384-10.957 26.452-7.063 7.063-16.46 10.956-26.451 10.957h-11.08l17.747-30.741 30.741-17.747zM315.13 221.565c-2.586 9.65-8.777 17.716-17.428 22.712l-9.596 5.538v-35.494l17.747-30.741 5.538 9.596c4.996 8.658 6.326 18.739 3.739 28.389z" fill="#ed2647" fill-rule="nonzero" stroke="none" stroke-width="1" stroke-linecap="butt" stroke-linejoin="miter" stroke-miterlimit="10" stroke-dasharray="" stroke-dashoffset="0" font-family="none" font-weight="none" font-size="none" text-anchor="none" style="mix-blend-mode: normal" data-fill-palette-color="tertiary"></path></g><g transform="matrix(1,0,0,1,66.71823204419888,90)"><svg viewBox="0 0 186.56353591160223 180" height="180" width="186.56353591160223"><g><svg viewBox="0 0 186.56353591160223 180" height="180" width="186.56353591160223"><g><svg viewBox="0 0 186.56353591160223 180" height="180" width="186.56353591160223"><g><svg viewBox="0 0 186.56353591160223 180" height="180" width="186.56353591160223"><g id="textblocktransform"><svg viewBox="0 0 186.56353591160223 180" height="180" width="186.56353591160223" id="textblock"><g><svg viewBox="0 0 186.56353591160223 180" height="180" width="186.56353591160223"><g transform="matrix(1,0,0,1,0,0)"><svg width="186.56353591160223" viewBox="-0.1 -40.7 46.9 45.25" height="180" data-palette-color="#ed2647"><path d="M45-33.95L45-33.95Q45-35.7 43.4-37.25L43.4-37.25Q41.1-39.45 37.05-39.45L37.05-39.45Q33.5-39.45 29.2-37.9L29.2-37.9Q26.95-37.1 25.3-35.7L25.3-35.7Q22.75-33.5 22.75-31.3L22.75-31.3Q22.75-28.35 26.5-26L26.5-26Q27.9-25.15 32.13-23.23 36.35-21.3 38.3-20.1L38.3-20.1Q41.25-18.3 42.38-16.25 43.5-14.2 43.5-12.45L43.5-12.45Q43.5-9.95 41.85-7.35L41.85-7.35Q38.95-2.7 33.35 0.65L33.35 0.65Q26.9 4.55 17.8 4.55L17.8 4.55Q9.05 4.55 3.9 0.1L3.9 0.1Q-0.1-3.3-0.1-8.65L-0.1-8.65Q-0.1-12.05 2.38-16.15 4.85-20.25 8.45-21.95L8.45-21.95Q9.2-22.25 9.58-22.15 9.95-22.05 8.95-21.2L8.95-21.2Q6.8-19.5 5.5-17.45L5.5-17.45Q2.7-13.05 2.7-7.9L2.7-7.9Q2.7-4.5 4.6-1.95L4.6-1.95Q8 2.6 16.4 3.2L16.4 3.2Q17.35 3.3 19.23 3.3 21.1 3.3 24.33 2.63 27.55 1.95 30.55 0.4L30.55 0.4Q37-3 38.9-8.4L38.9-8.4Q39.5-10 39.5-11.5L39.5-11.5Q39.5-14.9 36.45-17.5L36.45-17.5Q34.8-18.8 29.73-20.98 24.65-23.15 22.9-24.3L22.9-24.3Q19.05-26.9 19.05-30.45L19.05-30.45Q19.05-33.55 22.5-36.5L22.5-36.5Q27.45-40.7 36.5-40.7L36.5-40.7Q40.75-40.7 43.43-39.43 46.1-38.15 46.7-35.6L46.7-35.6Q46.8-35.1 46.8-34.6L46.8-34.6Q46.8-32.65 45-31.1L45-31.1Q43.75-30.1 41.65-29.5L41.65-29.5Q40.75-29.25 40.65-29.7L40.65-29.7Q40.55-30.35 41.9-30.5L41.9-30.5Q44.3-30.8 44.85-32.9L44.85-32.9Q45-33.45 45-33.95Z" opacity="1" transform="matrix(1,0,0,1,0,0)" fill="#ed2647" class="undefined-text-0" data-fill-palette-color="primary" id="text-0"></path></svg></g></svg></g></svg></g></svg></g><g></g></svg></g></svg></g></svg></g></svg></g><defs></defs></svg><rect width="320" height="360" fill="none" stroke="none" visibility="hidden"></rect></g></svg></g></svg>